<?xml version="1.0" standalone="no"?>
<!DOCTYPE svg PUBLIC "-//W3C//DTD SVG 1.1//EN" "http://www.w3.org/Graphics/SVG/1.1/DTD/svg11.dtd" >
<svg xmlns="http://www.w3.org/2000/svg">
<metadata>Generated by IcoMoon</metadata>
<defs>
<font id="icomoon" horiz-adv-x="1024">
<font-face units-per-em="1024" ascent="960" descent="-64" />
<missing-glyph horiz-adv-x="1024" />
<glyph unicode="&#x20;" horiz-adv-x="512" d="" />
<glyph unicode="&#xe900;" glyph-name="phone-o" d="M514.261 907.603c253.407 0 458.805-205.398 458.805-458.805s-205.398-458.805-458.805-458.805c-24.27 0-48.141 1.862-71.414 5.519l-24.004 33.579v10.639c30.454-7.048 62.171-10.772 94.753-10.772 231.331 0 418.909 187.578 418.909 418.909s-187.578 418.909-418.909 418.909c-231.331 0-418.909-187.578-418.909-418.909 0-126.87 56.386-240.507 145.488-317.374 7.381-15.36-0.798-21.677-0.798-21.677-11.503-14.828-33.247 0-33.247 0s0 0 0 0c-92.559 83.915-150.674 205.132-150.674 339.915 0 253.407 205.398 458.805 458.805 458.805zM591.792 793.766c66.294 14.695 132.987-39.896 132.987-39.896 59.179-35.441 19.948-119.688 19.948-119.688-35.707-86.974-113.039-53.195-113.039-53.195-34.111 15.227-59.844 19.948-59.844 19.948-42.755 5.984-86.442-86.442-86.442-86.442-62.437-138.306 6.649-152.935 6.649-152.935 38.633-8.711 59.844-33.247 59.844-33.247 43.287-37.768 13.299-106.39 13.299-106.39-32.050-72.345-86.442-66.494-86.442-66.494-87.838 9.509-132.987 73.143-132.987 73.143-53.594 108.251 13.299 292.571 13.299 292.571 117.76 256.665 232.727 272.623 232.727 272.623zM398.961 507.844c0 0-66.892-157.457-22.009-256 0 0 25.401-43.62 88.503-56.519 0 0 37.569-14.762 59.844 39.896 0 0 31.717 42.755-6.649 73.143 0 0-35.574 18.286-66.494 33.247 0 0-63.634 25.6-6.649 166.234 0 0 29.723 76.999 73.143 113.039 0 0 38.034 43.487 113.039 0 0 0 49.072-41.625 79.792 33.247 0 0 23.672 48.806-13.299 73.143 0 0-49.272 39.231-106.39 26.597 0 0-105.193-25.6-192.831-246.026zM412.26 195.325c0 0-46.080-60.642-46.545-113.039 0 0 4.921-76.268 79.792-86.442l13.299 33.247c0 0-60.576 14.828-53.195 59.844 0 0 9.243 62.969 39.896 86.442z" />
<glyph unicode="&#xe901;" glyph-name="food-menu-o" d="M159.584 906.805h684.883c24.204 0 60.243-27.861 59.844-53.195v-691.532c0-11.038-8.91-19.948-19.948-19.948h-724.779c-11.038 0-19.948 8.91-19.948 19.948v724.779c0 11.038 8.91 19.948 19.948 19.948zM179.532 847.161v-678.433c0 0 12.634 12.235 25.068 13.232 17.887 1.463 22.009 0.066 21.477 0.066h618.589c10.905 0 19.749 8.844 19.749 19.749v632.22c0 10.905-22.342 32.914-33.247 32.914h-631.888c-10.905 0-19.749-8.844-19.749-19.749zM226.078 182.026c0 0 0 0 0 0zM236.052 182.026h578.494c35.375 0 66.294-19.017 83.050-47.41-7.78 4.788-16.889 7.514-26.531 7.514h-638.338c-29.39 0-53.195-25.334-53.195-56.519s23.805-56.519 53.195-56.519h603.894c0 0 18.286-0.731 21.145-13.299 2.859-12.501-5.12-21.145-13.033-26.531-0.066 0-0.133-0.066-0.266-0.066-9.11-2.859-19.882 0-29.922 0h-578.494c-53.261 0-96.416 43.154-96.416 96.416s43.154 96.416 96.416 96.416zM139.636 201.974v-113.039c0-11.038 8.91-19.948 19.948-19.948s19.948 8.91 19.948 19.948v113.039c0 11.038-8.91 19.948-19.948 19.948s-19.948-8.91-19.948-19.948zM212.779 85.61c0-12.833 10.439-23.273 23.273-23.273h631.688c12.833 0 23.273 10.439 23.273 23.273s-10.439 23.273-23.273 23.273h-631.688c-12.833 0-23.273-10.439-23.273-23.273zM465.455 507.844l199.481-199.481c6.516-6.516 15.958 0.665 22.475 7.115 6.516 6.516 6.516 17.022 0 23.539l-197.486 197.486c-6.516 6.516-17.022 6.516-23.539 0s-7.447-22.142-0.931-28.659zM332.468 640.831l93.091-93.091c6.782-6.782 15.559 1.064 22.076 7.58s6.25 17.222-0.465 24.004l-93.024 93.024c-6.782 6.782-17.488 6.982-24.004 0.465s-4.322-25.268 2.394-31.983zM379.412 543.551c22.142-22.142 45.615-48.407 75.204-18.818l18.818 18.818c32.582 32.582 10.24 55.589-11.902 77.731l-72.677 72.677c0 0 0 0 0 0l-8.312 8.312c-4.189 5.585-7.248 13.099-1.13 19.882 0 0 11.503 16.889 32.914-4.721l1.529 1.529 98.144-98.144c25.999-25.999 20.347-65.496-5.652-91.429l-32.914-32.914c-25.999-25.999-68.488-27.927-94.421-1.995l-99.74 99.74c-0.199 0.199-0.399 0.399-0.598 0.598l1.995 0.399c0 0-14.363 14.895 0 28.193 0 0 10.107 8.046 28.193-9.376zM574.77 522.606l-193.297-193.297c-6.383-6.383-6.25-16.756 0.266-23.273s17.488-10.705 23.805-4.389l192.831 192.831c6.383 6.383 6.117 21.344-0.399 27.861s-16.889 6.583-23.273 0.266zM739.142 663.439c40.229-40.229 34.976-110.778-11.769-157.523s-117.228-51.998-157.523-11.769c-40.229 40.229-34.976 110.778 11.769 157.523s117.228 51.998 157.523 11.769zM611.74 627.532c-31.518-31.518-41.558-78.662-14.363-105.858s69.286-18.751 100.804 12.767c31.518 31.518 40.628 74.34 13.432 101.469-27.196 27.196-68.289 23.14-99.873-8.378z" />
<glyph unicode="&#xe902;" glyph-name="menu-o" d="M53.195 172.052c0-12.833 8.91-23.273 19.948-23.273h884.364c11.038 0 19.948 10.439 19.948 23.273s-8.91 23.273-19.948 23.273h-884.364c-11.038 0-19.948-10.439-19.948-23.273zM53.195 451.325c0-12.833 8.91-23.273 19.948-23.273h884.364c11.038 0 19.948 10.439 19.948 23.273s-8.91 23.273-19.948 23.273h-884.364c-11.038 0-19.948-10.439-19.948-23.273zM53.195 737.247c0-12.833 8.91-23.273 19.948-23.273h884.364c11.038 0 19.948 10.439 19.948 23.273s-8.91 23.273-19.948 23.273h-884.364c-11.038 0-19.948-10.439-19.948-23.273z" />
<glyph unicode="&#xe903;" glyph-name="order-o" d="M515.325 707.192c255.202 0 462.13-206.928 462.13-462.13 0-5.519-0.066-11.038-0.266-16.49h-46.213c0.199 5.452 0.332 10.971 0.332 16.557 0 229.735-186.182 415.917-415.917 415.917s-415.917-186.182-415.917-415.917c0-5.519 0.133-11.038 0.332-16.557h-46.213c-0.199 5.452-0.266 10.971-0.266 16.49 0 255.202 206.928 462.13 462.13 462.13zM53.195 105.558c0-12.833 8.91-23.273 19.948-23.273h884.364c11.038 0 19.948 10.439 19.948 23.273s-8.91 23.273-19.948 23.273h-884.364c-11.038 0-19.948-10.439-19.948-23.273zM53.195 225.247c0-12.833 8.91-23.273 19.948-23.273h884.364c11.038 0 19.948 10.439 19.948 23.273s-8.91 23.273-19.948 23.273h-884.364c-11.038 0-19.948-10.439-19.948-23.273zM398.961 797.091c0-12.833 10.439-23.273 23.273-23.273h186.182c12.833 0 23.273 10.439 23.273 23.273s-10.439 23.273-23.273 23.273h-186.182c-12.833 0-23.273-10.439-23.273-23.273zM515.325 807.065c-12.833 0-23.273-5.984-23.273-13.299v-106.39c0-7.314 10.439-13.299 23.273-13.299s23.273 5.984 23.273 13.299v106.39c0 7.314-10.439 13.299-23.273 13.299z" />
<glyph unicode="&#xe904;" glyph-name="password-o" d="M206.13 554.39h618.39c36.704 0 66.494-29.789 66.494-66.494v-432.208c0-36.704-29.789-66.494-66.494-66.494h-618.39c-36.704 0-66.494 29.789-66.494 66.494v432.208c0 36.704 29.789 66.494 66.494 66.494zM179.532 481.247v-418.909c0.066-16.224 18.086-33.18 33.247-33.247h605.091c18.286-0.665 32.914 18.552 33.247 33.247v418.909c0.133 19.549-21.278 33.114-33.247 33.247h-611.74c-14.163 0.133-26.797-12.301-26.597-33.247zM255.601 271.327c0-20.214 16.357-36.571 36.571-36.571s36.571 16.357 36.571 36.571c0 20.214-16.357 36.571-36.571 36.571s-36.571-16.357-36.571-36.571zM401.887 271.327c0-20.214 16.357-36.571 36.571-36.571s36.571 16.357 36.571 36.571c0 20.214-16.357 36.571-36.571 36.571s-36.571-16.357-36.571-36.571zM554.822 271.327c0-20.214 16.357-36.571 36.571-36.571s36.571 16.357 36.571 36.571c0 20.214-16.357 36.571-36.571 36.571s-36.571-16.357-36.571-36.571zM701.108 271.327c0-20.214 16.357-36.571 36.571-36.571s36.571 16.357 36.571 36.571c0 20.214-16.357 36.571-36.571 36.571s-36.571-16.357-36.571-36.571zM515.325 906.805c134.051 0 242.701-108.65 242.701-242.701v-136.312h-39.896v132.389c0 114.169-90.83 206.728-202.805 206.728s-202.805-92.559-202.805-206.728v-132.389h-39.896v136.312c0 134.051 108.65 242.701 242.701 242.701z" />
<glyph unicode="&#xe905;" glyph-name="re-pass-o" d="M514.261 907.603c136.578 0 259.192-59.645 343.239-154.331-7.314-9.841-16.357-23.273-24.004-34.843-76.866 90.764-191.634 148.414-319.9 148.414-231.331 0-418.909-187.578-418.909-418.909 0-52.596 9.708-102.998 27.395-149.411-0.199-14.762-9.11-16.756-9.11-16.756-12.301-3.724-21.743 0.199-28.326 5.585-18.884 50.203-29.191 104.594-29.191 161.446 0 253.407 205.398 458.805 458.805 458.805zM973.066 448.798c0-253.407-205.398-458.805-458.805-458.805-134.915 0-256.266 58.248-340.247 151.007l28.991 25.799c76.667-84.646 187.379-137.775 310.591-137.775 231.331 0 418.909 187.578 418.909 418.909 0 46.612-7.58 91.362-21.61 133.253-0.399 2.261-4.921 29.789 6.649 33.114 0 0 16.025 10.107 28.858-11.038 17.222-48.274 26.664-100.272 26.664-154.398zM864.416 727.273c0 11.038-8.91 19.948-19.948 19.948h-93.091c-11.038 0-19.948-8.91-19.948-19.948s8.91-19.948 19.948-19.948h93.091c11.038 0 19.948 8.91 19.948 19.948zM844.468 840.312c-11.038 0-19.948-8.91-19.948-19.948v-93.091c0-11.038 8.91-19.948 19.948-19.948s19.948 8.91 19.948 19.948v93.091c0 11.038-8.91 19.948-19.948 19.948zM159.584 168.727c0-11.038 8.91-19.948 19.948-19.948h93.091c11.038 0 19.948 8.91 19.948 19.948s-8.91 19.948-19.948 19.948h-93.091c-11.038 0-19.948-8.91-19.948-19.948zM179.532 55.688c11.038 0 19.948 8.91 19.948 19.948v93.091c0 11.038-8.91 19.948-19.948 19.948s-19.948-8.91-19.948-19.948v-93.091c0-11.038 8.91-19.948 19.948-19.948zM369.704 507.911h284.592c16.889 0 30.587-12.634 30.587-28.193v-183.123c0-15.559-13.698-28.193-30.587-28.193h-284.592c-16.889 0-30.587 12.634-30.587 28.193v183.123c0 15.559 13.698 28.193 30.587 28.193zM372.43 462.296v-154.863c0.066-5.984 6.915-5.652 13.232-5.718h252.675c7.58-0.266 13.099 0.266 13.232 5.718v154.863c0.066 7.248-8.844 12.235-13.831 12.301h-254.271c-5.918 0.066-11.171-4.522-11.038-12.301zM512 674.078c61.706 0 111.709-48.008 111.709-107.254v-60.243h-31.85v46.678c0 48.407-35.707 87.638-79.792 87.638s-79.792-39.231-79.792-87.638v-46.678h-31.85v60.243c0 59.246 50.003 107.254 111.709 107.254z" />
<glyph unicode="&#xe906;" glyph-name="table-3-o" d="M132.987 378.182c0-12.833 10.439-23.273 23.273-23.273h192.831c12.833 0 23.273 10.439 23.273 23.273s-10.439 23.273-23.273 23.273h-192.831c-12.833 0-23.273-10.439-23.273-23.273zM291.574 385.23c-12.7-1.928-21.078-16.357-18.618-32.249l36.239-238.313c2.394-15.892 14.695-27.196 27.395-25.268s21.078 16.357 18.618 32.249l-36.239 238.313c-2.394 15.892-14.695 27.196-27.395 25.268zM82.452 812.318c-12.833-1.13-22.009-15.028-20.613-31.052l37.901-366.512c1.396-16.025 33.712-54.325 46.545-53.195 6.516 0.598 46.545 33.247 46.545 33.247s-9.442 0.532-19.948 6.649c-9.243 5.386-19.616 22.94-19.948 26.597l-44.75 357.336c-1.396 16.025-12.966 28.060-25.733 26.93zM162.843 388.422c-12.767 1.729-24.802-9.841-26.93-25.733l-32.116-238.911c-2.128-15.892 6.45-30.188 19.217-31.917s24.802 9.841 26.93 25.733l32.116 238.911c2.128 15.892-6.45 30.188-19.217 31.917zM875.719 401.986h-193.962c-12.9 0-23.406-10.439-23.406-23.339s10.506-23.339 23.406-23.339h193.962c12.9 0 23.406 10.439 23.406 23.339s-10.506 23.339-23.406 23.339zM712.012 360.362l-36.438-238.845c-2.46-15.892 5.984-30.388 18.751-32.316s25.135 9.376 27.528 25.334l36.438 238.845c2.46 15.892-5.984 30.388-18.751 32.316s-25.135-9.376-27.528-25.334zM924.060 786.784l-45.016-358.134c-0.332-3.657-10.772-21.211-20.081-26.664-10.572-6.184-20.081-6.649-20.081-6.649s40.229-32.715 46.811-33.313c12.9-1.13 45.415 37.303 46.811 53.328l38.167 367.377c1.396 16.025-7.846 29.989-20.746 31.119s-24.47-10.971-25.866-26.996zM849.721 356.904l32.249-239.443c2.128-15.958 14.296-27.528 27.129-25.799s21.477 16.025 19.283 31.983l-32.249 239.443c-2.128 15.958-14.296 27.528-27.129 25.799s-21.477-16.025-19.283-31.983zM498.701 467.948v-352.416c0-11.038 8.91-19.948 19.948-19.948s19.948 8.91 19.948 19.948v352.416c0 11.038-8.91 19.948-19.948 19.948s-19.948-8.91-19.948-19.948zM438.857 118.857c0-12.833 10.905-23.273 24.27-23.273h111.044c13.432 0 24.27 10.439 24.27 23.273s-10.905 23.273-24.27 23.273h-111.044c-13.432 0-24.27-10.439-24.27-23.273zM312.519 620.883h405.61c11.038 0 19.948-8.91 19.948-19.948v-126.338c0-11.038-8.91-19.948-19.948-19.948h-405.61c-11.038 0-19.948 8.91-19.948 19.948v126.338c0 11.038 8.91 19.948 19.948 19.948zM332.468 567.688v-59.844c0-11.038-0.399-13.764 6.649-13.299h345.766c11.038 0 13.299 2.261 13.299 13.299v59.844c0 11.038-2.261 13.299-13.299 13.299h-345.766c-5.718 0-6.649-2.261-6.649-13.299z" />
<glyph unicode="&#xe907;" glyph-name="bar" d="M319.169 906.805h392.312c0 0 28.925 4.189 39.896-46.545 0 0 44.285-143.825 39.896-305.87 0 0-16.623-197.153-239.377-246.026v-212.779c0 0 78.994-55.655 172.883-73.143 0 0 31.717-9.575 33.247-33.247h-485.403c0 0-3.458 37.369 39.896 39.896 0 0 131.591 25.6 166.234 73.143v206.13c0 0-209.588 29.656-239.377 239.377 0 0 6.915 197.951 39.896 319.169 0 0 3.059 41.625 39.896 39.896zM312.519 527.792c57.916-150.874 199.481-146.286 199.481-146.286-103.264 33.446-126.338 106.39-126.338 106.39-25.068 126.737 19.948 279.273 19.948 279.273h292.571l-13.299 66.494h-339.117c-46.412-222.421-33.247-305.87-33.247-305.87z" />
<glyph unicode="&#xe908;" glyph-name="bell-o" d="M61.374 632.187c-6.383-8.977-4.788-21.078 3.524-26.996l115.699-82.053c8.312-5.918 20.281-3.391 26.597 5.585 6.383 8.977 4.788 21.078-3.524 26.996l-115.699 82.053c-8.312 5.918-20.281 3.391-26.597-5.585zM182.525 767.169c-8.578-6.915-10.373-18.951-3.923-26.93l88.902-110.512c6.383-7.979 18.552-8.844 27.129-1.928s10.373 18.951 3.923 26.93l-88.902 110.512c-6.383 7.979-18.552 8.844-27.129 1.928zM946.868 626.136l-116.164-82.319c-8.378-5.918-9.974-18.020-3.591-27.063s18.352-11.503 26.73-5.585l116.164 82.319c8.378 5.918 9.974 18.020 3.591 27.063s-18.352 11.503-26.73 5.585zM824.719 754.003l-89.301-110.911c-6.45-7.979-4.655-20.081 3.99-26.996s20.812-6.051 27.262 1.928l89.301 110.911c6.45 7.979 4.655 20.081-3.99 26.996s-20.812 6.051-27.262-1.928zM312.519 215.273c0-11.038-8.91-19.948-19.948-19.948s-19.948 8.91-19.948 19.948v73.143h39.896zM724.779 215.273c0-11.038-8.91-19.948-19.948-19.948s-19.948 8.91-19.948 19.948v73.143h39.896zM216.104 221.922h578.494c31.185 0 56.519-25.334 56.519-56.519s-25.334-56.519-56.519-56.519h-578.494c-31.185 0-56.519 25.334-56.519 56.519s25.334 56.519 56.519 56.519zM199.481 165.403c0-9.176 8.91-16.623 19.948-16.623h571.844c11.038 0 19.948 7.447 19.948 16.623s-8.91 16.623-19.948 16.623h-571.844c-11.038 0-19.948-7.447-19.948-16.623zM186.182 354.909c0.864 103.198 106.39 172.883 106.39 172.883 97.812 71.946 212.779 66.494 212.779 66.494 130.992-0.864 206.13-53.195 206.13-53.195 111.51-63.967 119.688-179.532 119.688-179.532 5.054-89.567-26.597-93.091-26.597-93.091h-605.091c-18.818 30.055-13.299 86.442-13.299 86.442zM239.377 308.364h538.597c0 0 14.695 28.925 0 93.091 0 0-22.475 75.803-126.338 126.338 0 0-68.887 21.677-146.286 19.948 0 0-84.646 5.452-146.286-33.247 0 0-70.35-25.334-113.039-106.39 0 0-29.922-52.064-6.649-99.74zM462.13 720.623h86.442c9.176 0 16.623-7.447 16.623-16.623s-7.447-16.623-16.623-16.623h-86.442c-9.176 0-16.623 7.447-16.623 16.623s7.447 16.623 16.623 16.623zM405.61 704c0-27.528 22.342-49.87 49.87-49.87h99.74c27.528 0 49.87 22.342 49.87 49.87s-22.342 49.87-49.87 49.87h-99.74c-27.528 0-49.87-22.342-49.87-49.87zM491.653 606.188c3.99-9.376-0.997-20.546-11.104-24.869s-21.61-0.199-25.6 9.243l-46.745 109.847 30.654-26.331h23.871zM555.753 591.892c-3.99-9.309-15.493-13.432-25.6-9.176s-15.094 15.294-11.104 24.669l28.925 67.424h23.871l30.654 26.132z" />
<glyph unicode="&#xe909;" glyph-name="book-table-o" d="M693.594 521.143c0 0 9.708-2.061 15.36-7.713 5.851-5.918 7.647-15.36 7.647-15.36l61.374-407.738c0 0-25.135-24.603-69.020-30.786-80.923-11.37-111.177 15.36-111.177 15.36s-41.492-19.217-84.38-19.217c-41.492 0-84.38 19.217-84.38 19.217s-42.755-23.14-111.177-15.36c-38.899 4.389-65.164 26.93-65.164 26.93l57.517 411.595c0 0 2.194 9.908 7.647 15.36 5.984 6.051 15.36 7.713 15.36 7.713zM352.416 481.247l-59.844-372.364c0 0 23.406-15.426 55.988-14.695 46.279 0.997 84.38 23.073 84.38 23.073s25.467-22.807 80.524-23.073c48.806-0.199 80.524 23.073 80.524 23.073s32.050-24.071 84.38-23.073c33.18 0.598 57.517 11.57 57.517 11.57l-57.517 376.952zM412.26 215.273v-106.39c0-11.038 8.91-19.948 19.948-19.948s19.948 8.91 19.948 19.948v106.39c0 11.038-8.91 19.948-19.948 19.948s-19.948-8.91-19.948-19.948zM571.844 178.701v-79.792c0-9.176 8.91-16.623 19.948-16.623s19.948 7.447 19.948 16.623v79.792c0 9.176-8.91 16.623-19.948 16.623s-19.948-7.447-19.948-16.623zM53.195 600.935v-299.221c0-11.038 8.91-19.948 19.948-19.948s19.948 8.91 19.948 19.948v299.221c0 11.038-8.91 19.948-19.948 19.948s-19.948-8.91-19.948-19.948zM93.091 261.818c0-11.038 8.91-19.948 19.948-19.948h179.532c11.038 0 19.948 8.91 19.948 19.948s-8.91 19.948-19.948 19.948h-179.532c-11.038 0-19.948-8.91-19.948-19.948zM53.195 308.364c0 0-1.13-62.77 59.844-66.494l6.649 39.896c0 0-17.222 0.066-26.597 26.597zM192.831 640.831c44.085 0 79.792-35.707 79.792-79.792v-169.957l-39.896 8.844v162.045c0 21.477-17.887 38.899-39.896 38.899s-39.896-17.421-39.896-38.899v-181.527c0-18.086 12.634-33.247 29.789-37.635l3.458-27.861 56.719 4.389c-13.698-11.038-31.119-17.687-50.070-17.687-44.085 0-79.792 35.707-79.792 79.792v179.532c0 44.085 35.707 79.792 79.792 79.792zM159.584 321.662c0-11.038 10.24-19.948 22.94-19.948h107.055c12.7 0 22.94 8.91 22.94 19.948s-10.24 19.948-22.94 19.948h-107.055c-12.7 0-22.94-8.91-22.94-19.948zM232.727 401.455c0-11.038 8.91-19.948 19.948-19.948h53.195c11.038 0 19.948 8.91 19.948 19.948s-8.91 19.948-19.948 19.948h-53.195c-11.038 0-19.948-8.91-19.948-19.948zM91.030 259.358l-17.754-181.66c-0.997-10.041 7.115-19.017 18.086-20.081s20.679 6.184 21.61 16.224l17.754 181.66c0.997 10.041-7.115 19.017-18.086 20.081s-20.679-6.184-21.61-16.224zM195.89 825.151c44.085 0 79.792-35.707 79.792-79.792s-35.707-79.792-79.792-79.792c-44.085 0-79.792 35.707-79.792 79.792s35.707 79.792 79.792 79.792zM156.060 744.229c0-22.009 17.887-39.896 39.896-39.896s39.896 17.887 39.896 39.896c0 22.009-17.887 39.896-39.896 39.896s-39.896-17.887-39.896-39.896zM957.506 623.543c-11.038 0-19.948-8.91-19.948-19.882v-298.090c0-10.971 8.91-19.882 19.948-19.882s19.948 8.91 19.948 19.882v298.090c0 10.971-8.91 19.882-19.948 19.882zM917.61 285.689h-179.532c-11.038 0-19.948-8.91-19.948-19.882s8.91-19.882 19.948-19.882h179.532c11.038 0 19.948 8.91 19.948 19.882s-8.91 19.882-19.948 19.882zM937.558 312.22c-9.376-26.464-26.597-26.464-26.597-26.464l6.649-39.763c60.975 3.657 59.844 66.228 59.844 66.228zM917.61 563.898v-178.868c0-43.886-35.707-79.46-79.792-79.46-18.951 0-36.372 6.583-50.070 17.621l56.719-4.322 3.458 27.728c17.155 4.322 29.789 19.483 29.789 37.502v180.862c0 21.411-17.887 38.766-39.896 38.766s-39.896-17.355-39.896-38.766v-161.446l-39.896-8.844v169.292c0 43.886 35.707 79.46 79.792 79.46s79.792-35.574 79.792-79.46zM848.125 345.334h-107.055c-12.7 0-22.94-8.91-22.94-19.882s10.24-19.882 22.94-19.882h107.055c12.7 0 22.94 8.91 22.94 19.882s-10.24 19.882-22.94 19.882zM777.974 424.794h-53.195c-11.038 0-19.948-8.91-19.948-19.882s8.91-19.882 19.948-19.882h53.195c11.038 0 19.948 8.91 19.948 19.882s-8.91 19.882-19.948 19.882zM918.009 279.572c-10.971-1.064-19.084-10.041-18.086-20.015l17.754-180.929c0.997-9.974 10.639-17.222 21.61-16.158s19.084 10.041 18.086 20.015l-17.754 180.929c-0.997 9.974-10.639 17.222-21.61 16.158zM914.552 747.553c0-43.886-35.707-79.46-79.792-79.46s-79.792 35.574-79.792 79.46c0 43.886 35.707 79.46 79.792 79.46s79.792-35.574 79.792-79.46zM834.693 786.186c-22.009 0-39.896-17.82-39.896-39.763s17.887-39.763 39.896-39.763c22.009 0 39.896 17.82 39.896 39.763s-17.887 39.763-39.896 39.763z" />
<glyph unicode="&#xe90a;" glyph-name="couple-table" d="M288.781 635.312v-381.34c0-25.068 20.281-45.415 45.282-45.415h362.456c25.002 0 45.282 20.347 45.282 45.415v381.34c0 25.068-20.281 45.415-45.282 45.415h-362.456c-25.002 0-45.282-20.347-45.282-45.415zM111.111 440.22c0-35.641 28.858-64.499 64.366-64.499 35.574 0 64.366 28.858 64.366 64.499s-28.858 64.499-64.366 64.499c-35.574 0-64.366-28.858-64.366-64.499zM175.609 562.768c5.452 0 10.905-0.332 16.158-1.064v-37.236c-5.253 0.997-10.639 1.529-16.224 1.529-47.277 0-85.644-38.433-85.644-85.843s38.367-85.843 85.644-85.843c5.519 0 10.971 0.532 16.224 1.529v-37.236c-5.319-0.731-10.705-1.064-16.158-1.064-67.557 0-122.348 54.857-122.348 122.614 0 67.69 54.791 122.614 122.348 122.614zM855.173 504.719c-35.574 0-64.366-28.858-64.366-64.499s28.858-64.499 64.366-64.499c35.574 0 64.366 28.858 64.366 64.499s-28.858 64.499-64.366 64.499zM977.388 440.154c0-67.69-54.791-122.614-122.348-122.614-5.452 0-10.905 0.332-16.158 1.064v37.236c5.253-0.997 10.639-1.529 16.224-1.529 47.277 0 85.644 38.433 85.644 85.843s-38.367 85.843-85.644 85.843c-5.519 0-10.971-0.532-16.224-1.529v37.236c5.319 0.731 10.705 1.064 16.158 1.064 67.557 0 122.348-54.857 122.348-122.614z" />
<glyph unicode="&#xe90b;" glyph-name="family-table" d="M704.565 827.013h-369.704c-24.337 0-44.019-19.882-44.019-44.484v-675.774c0-24.536 19.682-44.484 44.019-44.484h369.704c24.337 0 44.019 19.882 44.019 44.484v675.774c0 24.536-19.682 44.484-44.019 44.484zM111.111 180.896c0-35.641 28.858-64.499 64.366-64.499 35.574 0 64.366 28.858 64.366 64.499s-28.858 64.499-64.366 64.499c-35.574 0-64.366-28.858-64.366-64.499zM175.609 303.443c5.452 0 10.905-0.332 16.158-1.064v-37.236c-5.253 0.997-10.639 1.529-16.224 1.529-47.277 0-85.644-38.433-85.644-85.843s38.367-85.843 85.644-85.843c5.519 0 10.971 0.532 16.224 1.529v-37.236c-5.319-0.731-10.705-1.064-16.158-1.064-67.557 0-122.348 54.857-122.348 122.614 0 67.69 54.791 122.614 122.348 122.614zM855.173 245.394c-35.574 0-64.366-28.858-64.366-64.499s28.858-64.499 64.366-64.499c35.574 0 64.366 28.858 64.366 64.499s-28.858 64.499-64.366 64.499zM977.388 180.829c0-67.69-54.791-122.614-122.348-122.614-5.452 0-10.905 0.332-16.158 1.064v37.236c5.253-0.997 10.639-1.529 16.224-1.529 47.277 0 85.644 38.433 85.644 85.843s-38.367 85.843-85.644 85.843c-5.519 0-10.971-0.532-16.224-1.529v37.236c5.319 0.731 10.705 1.064 16.158 1.064 67.557 0 122.348-54.857 122.348-122.614zM111.111 440.22c0-35.641 28.858-64.499 64.366-64.499 35.574 0 64.366 28.858 64.366 64.499s-28.858 64.499-64.366 64.499c-35.574 0-64.366-28.858-64.366-64.499zM175.609 562.768c5.452 0 10.905-0.332 16.158-1.064v-37.236c-5.253 0.997-10.639 1.529-16.224 1.529-47.277 0-85.644-38.433-85.644-85.843s38.367-85.843 85.644-85.843c5.519 0 10.971 0.532 16.224 1.529v-37.236c-5.319-0.731-10.705-1.064-16.158-1.064-67.557 0-122.348 54.857-122.348 122.614 0 67.69 54.791 122.614 122.348 122.614zM855.173 504.719c-35.574 0-64.366-28.858-64.366-64.499s28.858-64.499 64.366-64.499c35.574 0 64.366 28.858 64.366 64.499s-28.858 64.499-64.366 64.499zM977.388 440.154c0-67.69-54.791-122.614-122.348-122.614-5.452 0-10.905 0.332-16.158 1.064v37.236c5.253-0.997 10.639-1.529 16.224-1.529 47.277 0 85.644 38.433 85.644 85.843s-38.367 85.843-85.644 85.843c-5.519 0-10.971-0.532-16.224-1.529v37.236c5.319 0.731 10.705 1.064 16.158 1.064 67.557 0 122.348-54.857 122.348-122.614zM111.111 706.194c0-35.641 28.858-64.499 64.366-64.499 35.574 0 64.366 28.858 64.366 64.499s-28.858 64.499-64.366 64.499c-35.574 0-64.366-28.858-64.366-64.499zM175.609 828.742c5.452 0 10.905-0.332 16.158-1.064v-37.236c-5.253 0.997-10.639 1.529-16.224 1.529-47.277 0-85.644-38.433-85.644-85.843s38.367-85.843 85.644-85.843c5.519 0 10.971 0.532 16.224 1.529v-37.236c-5.319-0.731-10.705-1.064-16.158-1.064-67.557 0-122.348 54.857-122.348 122.614 0 67.69 54.791 122.614 122.348 122.614zM855.173 770.693c-35.574 0-64.366-28.858-64.366-64.499s28.858-64.499 64.366-64.499c35.574 0 64.366 28.858 64.366 64.499s-28.858 64.499-64.366 64.499zM977.388 706.128c0-67.69-54.791-122.614-122.348-122.614-5.452 0-10.905 0.332-16.158 1.064v37.236c5.253-0.997 10.639-1.529 16.224-1.529 47.277 0 85.644 38.433 85.644 85.843s-38.367 85.843-85.644 85.843c-5.519 0-10.971-0.532-16.224-1.529v37.236c5.319 0.731 10.705 1.064 16.158 1.064 67.557 0 122.348-54.857 122.348-122.614z" />
<glyph unicode="&#xe90c;" glyph-name="group-o" d="M518.649 707.325c84.447 0 152.935-81.854 152.935-182.857s-68.488-182.857-152.935-182.857c-84.447 0-152.935 81.854-152.935 182.857s68.488 182.857 152.935 182.857zM403.948 524.468c0-75.736 51.333-137.176 114.701-137.176s114.701 61.374 114.701 137.176c0 75.736-51.333 137.11-114.701 137.11s-114.701-61.374-114.701-137.11zM791.339 148.779c0-8.977-0.465-17.82-1.263-26.597h-43.886c0.997 8.711 1.529 17.621 1.529 26.597 0 100.937-65.297 186.581-155.927 217.101v45.615c115.1-31.917 199.547-137.442 199.547-262.716zM289.712 148.779c0-8.977 0.532-17.887 1.529-26.597h-43.886c-0.864 8.777-1.263 17.621-1.263 26.597 0 79.26 33.779 150.608 87.771 200.411 5.718 3.524 27.129 15.161 38.433-0.931 0 0 4.655-10.705-3.192-25.999-48.673-42.024-79.46-104.129-79.46-173.415zM438.857 409.5v-18.020l-10.572 14.562c3.524 1.197 7.048 2.394 10.572 3.458zM246.026 95.584h545.247v39.896h-545.247zM325.818 800.416c67.225 0 124.276-51.865 144.823-123.944l-33.18-27.196c-11.969 60.443-57.384 105.392-111.576 105.392-63.368 0-114.701-61.374-114.701-137.176 0-75.736 51.333-137.176 114.701-137.176 23.273 0 44.95 8.312 63.036 22.541l3.458-48.341 0.798-1.33c-20.281-11.902-43.154-18.618-67.291-18.618-84.447 0-152.935 81.854-152.935 182.857s68.488 182.857 152.935 182.857zM246.026 456.578v46.014c-111.576-34.178-192.765-137.974-192.765-260.721 0-8.977 0.465-17.82 1.263-26.597h43.886c-0.997 8.711-1.529 17.621-1.529 26.597 0 98.41 62.038 182.259 149.145 214.708zM53.195 188.675h226.078v39.896h-226.078zM698.182 800.416c84.447 0 152.935-81.854 152.935-182.857s-68.488-182.857-152.935-182.857c-24.47 0-47.609 6.915-68.156 19.15l16.49 41.226c15.493-9.376 33.047-14.629 51.665-14.629 63.368 0 114.701 61.374 114.701 137.176 0 75.736-51.333 137.176-114.701 137.176-52.131 0-96.15-41.558-110.113-98.543l-34.976 19.416c20.281 72.544 77.598 124.808 145.089 124.808zM771.325 504.586v-45.615c90.631-30.521 155.927-116.164 155.927-217.101 0-8.977-0.532-17.887-1.529-26.597h43.886c0.864 8.777 1.263 17.621 1.263 26.597 0 125.274-84.447 230.799-199.547 262.716zM771.325 188.675h199.481v39.896h-199.481z" />
<glyph unicode="&#xe90d;" glyph-name="home-2-o" d="M146.286 346.93v-310.059c0-19.017 13.365-34.444 29.922-34.444 16.49 0 29.922 15.426 29.922 34.444v310.059c0 19.017-13.365 34.444-29.922 34.444-16.49 0-29.922-15.426-29.922-34.444zM824.519 346.93v-310.059c0-19.017 13.365-34.444 29.922-34.444 16.49 0 29.922 15.426 29.922 34.444v310.059c0 19.017-13.365 34.444-29.922 34.444-16.49 0-29.922-15.426-29.922-34.444zM146.286 32.416c0-16.557 13.365-29.922 29.922-29.922h678.234c16.557 0 29.922 13.365 29.922 29.922s-13.365 29.922-29.922 29.922h-678.234c-16.557 0-29.922-13.365-29.922-29.922zM496.906 880.341c-11.836-11.503-12.966-29.59-2.46-40.428l431.011-444.775c10.506-10.838 28.659-10.306 40.495 1.197s12.966 29.59 2.46 40.428l-431.011 444.775c-10.506 10.838-28.659 10.306-40.495-1.197zM488.594 879.011l-428.085-447.701c-10.439-10.905-9.309-29.124 2.46-40.694s29.789-12.102 40.229-1.197l428.085 447.701c10.439 10.905 9.309 29.124-2.46 40.694s-29.789 12.102-40.229 1.197zM618.39 534.442c119.023-18.020 106.39-139.636 106.39-139.636 15.825-84.114-79.792-166.234-79.792-166.234-56.918-53.461-132.987-93.091-132.987-93.091-47.809 16.623-126.338 93.091-126.338 93.091-91.163 61.905-86.442 172.883-86.442 172.883 9.442 123.678 106.39 132.987 106.39 132.987 66.626 17.488 106.39-39.896 106.39-39.896 46.944 53.86 106.39 39.896 106.39 39.896zM418.909 481.247c0 0-66.294-8.777-59.844-99.74 0 0-4.921-66.294 66.494-119.688 0 0 57.716-50.868 86.442-66.494 0 0 60.642 45.947 86.442 66.494 0 0 76.667 62.77 73.143 119.688 0 0 2.527 79.593-53.195 99.74 0 0-59.046 12.301-73.143-39.896 0 0-8.777-44.95-33.247-46.545 0 0-21.677 1.596-26.597 46.545 0 0-23.938 50.136-66.494 39.896z" />
<glyph unicode="&#xe90e;" glyph-name="individual-o" d="M508.675 906.805c126.67 0 229.403-122.481 229.403-273.554s-102.732-273.554-229.403-273.554c-126.67 0-229.403 122.481-229.403 273.554s102.732 273.554 229.403 273.554zM329.741 633.251c0-117.826 80.125-213.378 178.934-213.378s178.934 95.551 178.934 213.378c0 117.826-80.125 213.378-178.934 213.378s-178.934-95.551-178.934-213.378zM917.743 71.248c0-13.432-0.665-26.73-1.928-39.83h-51.998c1.463 13.033 2.194 26.331 2.194 39.763 0 158.654-103.929 293.103-247.622 339.183v53.86c172.617-47.742 299.354-205.664 299.354-393.043zM151.539 71.248c0-13.432 0.731-26.73 2.194-39.763h-51.931c-1.263 13.099-1.928 26.398-1.928 39.83 0 119.688 51.665 227.341 134.051 301.947 9.841 7.181 33.38 21.145 45.349 1.662 0 0 13.764-8.711 1.13-29.656-78.728-65.363-128.798-163.84-128.798-273.953zM388.987 461.299v-26.996l-15.892 21.81c5.253 1.862 10.572 3.591 15.892 5.186zM99.74-8.345h817.87v59.711h-817.87z" />
<glyph unicode="&#xe90f;" glyph-name="kitchen" d="M305.87 321.662l-199.481-199.481c10.174-101.27 99.74-99.74 99.74-99.74l199.481 199.481-19.948 26.597 259.325 252.675-53.195 53.195-259.325-259.325zM671.584 321.662l199.481-199.481c-10.174-101.27-99.74-99.74-99.74-99.74l-199.481 199.481 19.948 26.597-54.458 53.062 48.341 52.796 59.246-59.246zM332.468 501.195l53.195 53.195 139.171-139.171-53.328-49.538zM751.377 880.208l219.429-219.429-199.481-206.13c0 0-206.462 7.78-226.078 219.429zM625.039 634.182l152.935 146.286-26.597 26.597-152.935-146.286zM691.532 567.688l139.636 146.286-19.948 26.597-146.286-146.286zM751.377 507.844l146.286 146.286-26.597 26.597-146.286-146.286zM249.351 833.795c108.318 0 196.156-87.838 196.156-196.156s-87.838-196.156-196.156-196.156c-108.318 0-196.156 87.838-196.156 196.156s87.838 196.156 196.156 196.156zM227.075 728.137c0-14.695 11.902-26.597 26.597-26.597s26.597 11.902 26.597 26.597c0 14.695-11.902 26.597-26.597 26.597s-26.597-11.902-26.597-26.597zM226.011 634.182c0-14.695 11.902-26.597 26.597-26.597s26.597 11.902 26.597 26.597c0 14.695-11.902 26.597-26.597 26.597s-26.597-11.902-26.597-26.597zM226.011 547.74c0-14.695 11.902-26.597 26.597-26.597s26.597 11.902 26.597 26.597c0 14.695-11.902 26.597-26.597 26.597s-26.597-11.902-26.597-26.597zM146.219 594.286c0-14.695 11.902-26.597 26.597-26.597s26.597 11.902 26.597 26.597c0 14.695-11.902 26.597-26.597 26.597s-26.597-11.902-26.597-26.597zM305.804 594.286c0-14.695 11.902-26.597 26.597-26.597s26.597 11.902 26.597 26.597c0 14.695-11.902 26.597-26.597 26.597s-26.597-11.902-26.597-26.597zM146.219 680.727c0-14.695 11.902-26.597 26.597-26.597s26.597 11.902 26.597 26.597c0 14.695-11.902 26.597-26.597 26.597s-26.597-11.902-26.597-26.597zM305.804 680.727c0-14.695 11.902-26.597 26.597-26.597s26.597 11.902 26.597 26.597c0 14.695-11.902 26.597-26.597 26.597s-26.597-11.902-26.597-26.597z" />
<glyph unicode="&#xe910;" glyph-name="like" d="M219.429 747.221l19.948 73.143h86.442l39.896 66.494 79.792-26.597 66.494 46.545 59.844-46.545 79.792 26.597 46.545-66.494h79.792l26.597-79.792 79.792-19.948v-86.442l59.844-39.896-19.948-86.442 46.545-59.844-46.545-66.494 19.948-79.792-59.844-39.896v-86.442l-79.792-19.948-26.597-79.792h-79.792l-39.896-59.844-79.792 19.948-66.494-46.545-66.494 46.545-79.792-19.948-39.896 59.844h-79.792l-33.247 79.792-73.143 26.597v79.792l-66.494 46.545 26.597 73.143-46.545 66.494 46.545 66.494-19.948 79.792 59.844 46.545v79.792zM325.818 434.701v-159.584c0 0 1.928-13.299 19.948-13.299h46.545c0 0 14.695-0.332 13.299 13.299v159.584c0 0-5.452 14.496-19.948 13.299h-46.545c0 0-14.097-1.529-13.299-13.299zM418.909 441.351v-166.234c0 0 71.946-18.751 106.39-19.948h99.74c0 0 54.392 10.174 39.896 59.844 0 0 28.526 10.705 26.597 33.247 0 0-15.227 19.416 0 33.247 0 0 20.48 19.416-6.649 39.896 0 0-3.724 8.112 6.649 13.299 0 0 16.623 17.488 0 39.896 0 0-18.751 19.948-33.247 19.948h-93.091c0 0 0.199 21.344 13.299 46.545 0 0 23.273 35.84 13.299 79.792 0 0-5.918 38.5-46.545 33.247 0 0-5.785-5.054-6.649-26.597 0 0 1.197-35.707-13.299-59.844 0 0-17.687-19.749-26.597-26.597 0 0-9.11-7.713-19.948-33.247 0 0-24.004-62.304-59.844-66.494z" />
<glyph unicode="&#xe911;" glyph-name="location-1-o" d="M510.537 907.005c163.441 0 295.896-132.455 295.896-295.896 0-53.793-14.363-104.195-39.431-147.682l-45.149 34.51c18.086 33.712 28.326 72.212 28.326 113.172 0 132.389-107.321 239.709-239.709 239.709s-239.709-107.321-239.709-239.709c0-28.193 4.854-55.323 13.831-80.457l-52.663-19.749c-11.237 31.318-17.421 65.031-17.421 100.206 0 163.441 132.455 295.896 295.896 295.896zM508.675 773.885c97.346 0 176.274-78.928 176.274-176.274s-78.928-176.274-176.274-176.274c-97.346 0-176.274 78.928-176.274 176.274s78.928 176.274 176.274 176.274zM392.179 597.61c0-64.366 52.197-116.497 116.497-116.497 64.366 0 116.497 52.197 116.497 116.497 0 64.366-52.197 116.497-116.497 116.497-64.366 0-116.497-52.197-116.497-116.497zM219.429 554.39c0 0 4.854-47.543 33.247-106.39 0 0 58.315-173.149 232.727-438.857 0 0 20.015-41.226 53.195 0 0 0 153.6 242.502 226.078 432.208 0 0 40.495 94.421 39.896 126.338h-53.195c0 0-28.991-79.194-46.545-113.039 0 0-29.656-83.449-73.143-166.234-57.583-109.581-119.688-206.13-119.688-206.13s-63.501 99.208-119.688 206.13c-45.814 87.239-79.792 166.234-79.792 166.234s-37.569 81.388-39.896 113.039z" />
<glyph unicode="&#xe912;" glyph-name="location-2-o" d="M515.391 700.742c75.271 0 136.312-61.041 136.312-136.312s-61.041-136.312-136.312-136.312c-75.271 0-136.312 61.041-136.312 136.312s61.041 136.312 136.312 136.312zM433.604 564.43c0-45.149 36.638-81.787 81.787-81.787s81.787 36.638 81.787 81.787c0 45.149-36.638 81.787-81.787 81.787s-81.787-36.638-81.787-81.787zM515.524 891.711c180.663 0 330.14-146.485 327.148-327.148-3.524-214.043-330.672-475.628-330.672-475.628s-203.803 166.3-287.983 343.306c-4.921 33.779 8.711 42.356 8.711 42.356 12.833 7.913 24.004 2.394 31.252-3.724 66.161-159.318 248.021-315.445 248.021-315.445s272.956 222.155 278.209 409.068c4.256 151.738-123.013 274.818-274.818 274.818-151.738 0-283.462-123.279-274.818-274.818 0-0.332 0.066-0.665 0.066-0.997l-1.33 4.189c0.997-30.255-19.948-33.247-19.948-33.247-17.222 1.662-26.93 18.352-30.986 27.462 0 0.864-0.066 1.795-0.066 2.66-4.389 180.596 146.485 327.148 327.148 327.148zM193.962 268.8l-131.258-223.219c-8.046-13.698-3.059-31.584 11.171-39.963s32.316-4.056 40.362 9.642l131.258 223.219c8.046 13.698 3.059 31.584-11.171 39.963s-32.316 4.056-40.362-9.642zM799.85 277.444c-14.429-8.312-19.483-26.065-11.304-39.63l132.788-221.423c8.179-13.565 26.464-17.887 40.827-9.575 14.429 8.312 19.483 26.065 11.304 39.63l-132.788 221.423c-8.179 13.565-26.464 17.887-40.827 9.575zM59.844 25.766c0-16.557 16.557-29.922 36.904-29.922h837.087c20.414 0 36.904 13.365 36.904 29.922s-16.557 29.922-36.904 29.922h-837.087c-20.414 0-36.904-13.365-36.904-29.922z" />
<glyph unicode="&#xe913;" glyph-name="logo-dancer" d="M435.333 596.015c27.196-132.322 3.059-226.144 3.059-226.144-33.779-118.092-139.171-89.567-139.171-89.567-100.538 35.441-64.233 124.476-64.233 124.476 41.226 74.273 137.642 74.34 137.642 74.34 42.423-94.421-12.235-176.075-12.235-176.075 80.324 41.625 58.115 145.687 58.115 145.687-6.317 32.648-4.588 77.398-4.588 77.398-180.729-8.711-217.168-110.778-217.168-110.778-30.388-136.112 94.82-169.957 94.82-169.957 106.257-29.856 166.699 62.238 166.699 62.238 52.929 84.846 10.705 302.014 10.705 302.014-11.57 80.258 9.176 144.158 9.176 144.158-52.862-30.521-42.822-157.856-42.822-157.856zM524.035 673.413c0 0 21.012-71.547 12.235-168.495 0 0-20.746-125.141 26.664-197.486 0 0 57.982-78.263 167.098-62.238 0 0 132.588 33.912 95.019 170.090 0 0-38.832 102.267-219.961 110.978 0 0-6.782-31.252-7.647-81.92 0 0-0.133-114.967 63.634-141.365 0 0-54.791 81.654-12.235 176.141 0 0 96.615-0.066 137.974-74.406 0 0 36.438-89.035-64.366-124.542 0 0-105.658-28.526-139.503 89.567 0 0-9.309 47.077-9.908 165.635 0 0-4.256 102.201-48.939 138.107z" />
<glyph unicode="&#xe914;" glyph-name="note-o" d="M126.338 328.312l545.247 545.247c0 0 40.428 54.857 146.286 26.597l139.636-132.987c0 0 54.059-67.69-19.948-152.935l-538.597-545.247c0 0-24.536-16.889-73.143-26.597l-239.377-46.545c0 0-39.63-12.301-33.247 26.597l46.545 226.078c0 0 17.621 71.015 26.597 79.792zM152.935 241.87l-46.545-192.831 199.481 39.896c0 0-123.611 30.454-152.935 152.935zM232.727 208.623l372.364 372.364-79.792 79.792-339.117-345.766c-3.192-52.463 46.545-106.39 46.545-106.39zM379.013 122.182l345.766 345.766-79.792 79.792-372.364-379.013c47.476-44.351 106.39-46.545 106.39-46.545zM758.026 501.195l46.545 53.195-192.831 192.831-46.545-46.545zM651.636 780.468l192.831-192.831 53.195 53.195c0 0 42.689 45.149 19.948 86.442l-126.338 126.338c0 0-44.684 26.797-86.442-19.948z" />
<glyph unicode="&#xe915;" glyph-name="question-o" d="M512.066 906.872c253.34 0 458.739-205.465 458.739-458.872s-205.398-458.872-458.739-458.872c-253.34 0-458.739 205.465-458.739 458.872s205.398 458.872 458.739 458.872zM105.126 447.136c0 73.941-13.764-75.138 47.011-189.905 68.156-128.731 203.47-216.436 359.264-216.436 224.416 0 406.275 181.926 406.275 406.408 0 224.416-181.926 406.408-406.275 406.408-224.416 0-406.275-181.926-406.275-406.408zM515.391 700.742c75.271 0 136.312-61.041 136.312-136.312s-61.041-136.312-136.312-136.312c-10.306 0-20.347 1.13-29.989 3.325v23.206c6.383 25.6 33.247 26.597 33.247 26.597l-0.997 1.396c44.085 1.197 79.526 37.369 79.526 81.787 0 45.149-36.638 81.787-81.787 81.787-44.285 0-80.391-35.242-81.721-79.194l-1.396 0.731c-1.263-28.991-26.597-26.597-26.597-26.597-19.948-1.263-25.201 23.273-26.331 30.986 3.923 71.746 63.368 128.731 136.112 128.731zM477.423 250.913c0-20.214 16.357-36.571 36.571-36.571s36.571 16.357 36.571 36.571c0 20.214-16.357 36.571-36.571 36.571s-36.571-16.357-36.571-36.571zM485.403 448v-73.143c0-14.695 11.902-26.597 26.597-26.597s26.597 11.902 26.597 26.597v73.143c0 14.695-11.902 26.597-26.597 26.597s-26.597-11.902-26.597-26.597z" />
<glyph unicode="&#xe916;" glyph-name="sale-o" d="M325.818 807.065l53.195 73.143c0 0 12.634 26.996 53.195 13.299l79.792-39.896 79.792 33.247c0 0 40.761 21.411 59.844-13.299l53.195-66.494h79.792c0 0 54.392 1.463 59.844-46.545l13.299-79.792 66.494-39.896c0 0 45.947-23.406 19.948-73.143l-19.948-66.494 46.545-73.143c0 0 22.608-35.508-13.299-59.844l-53.195-53.195v-79.792c0 0 10.439-55.988-39.896-59.844l-79.792-19.948-26.597-73.143c0 0-20.081-48.208-66.494-33.247l-79.792 13.299-59.844-46.545c0 0-34.71-31.119-73.143 0l-59.844 46.545-79.792-13.299c0 0-45.083-12.966-59.844 26.597l-39.896 79.792-73.143 19.948c0 0-39.83 2.726-39.896 53.195v86.442l-53.195 53.195c0 0-39.165 28.925-6.649 73.143l39.896 59.844-19.948 73.143c0 0-29.191 49.804 19.948 73.143l66.494 33.247 13.299 73.143c0 0 3.79 57.251 59.844 53.195zM239.377 753.87l-13.299-99.74-99.74-53.195 33.247-106.39-53.195-86.442 73.143-66.494v-113.039l106.39-33.247 39.896-86.442 99.74 13.299 93.091-73.143 79.792 66.494 113.039-19.948 39.896 106.39 106.39 26.597-13.299 106.39 79.792 73.143-59.844 86.442 39.896 99.74-99.74 59.844-13.299 99.74-113.039 6.649-59.844 86.442-106.39-46.545-99.74 46.545-66.494-86.442zM405.61 647.481c40.428 0 73.143-32.715 73.143-73.143v-53.195c0-40.428-32.715-73.143-73.143-73.143s-73.143 32.715-73.143 73.143v53.195c0 40.428 32.715 73.143 73.143 73.143zM379.013 569.151v-49.471c0-17.554 11.902-31.784 26.597-31.784s26.597 14.23 26.597 31.784v49.471c0 17.554-11.902 31.784-26.597 31.784s-26.597-14.23-26.597-31.784zM618.39 467.948c40.428 0 73.143-32.715 73.143-73.143v-53.195c0-40.428-32.715-73.143-73.143-73.143s-73.143 32.715-73.143 73.143v53.195c0 40.428 32.715 73.143 73.143 73.143zM591.792 389.619v-49.471c0-17.554 11.902-31.784 26.597-31.784s26.597 14.23 26.597 31.784v49.471c0 17.554-11.902 31.784-26.597 31.784s-26.597-14.23-26.597-31.784zM579.823 627.067l-187.312-310.791c-11.503-19.084-9.376-41.425 4.788-49.937s34.909 0 46.412 19.084l187.312 310.791c11.503 19.084 9.376 41.425-4.788 49.937s-34.909 0-46.412-19.084z" />
<glyph unicode="&#xe917;" glyph-name="service-o" d="M468.779 587.57c75.271 0 136.312-61.041 136.312-136.312s-61.041-136.312-136.312-136.312c-75.271 0-136.312 61.041-136.312 136.312s61.041 136.312 136.312 136.312zM389.718 451.325c0-43.686 35.375-79.061 79.061-79.061s79.061 35.375 79.061 79.061c0 43.686-35.375 79.061-79.061 79.061s-79.061-35.375-79.061-79.061zM631.622 285.024c0-23.871 19.35-43.221 43.221-43.221s43.221 19.35 43.221 43.221c0 23.871-19.35 43.221-43.221 43.221s-43.221-19.35-43.221-43.221zM438.857 866.976v-299.354c0-18.352 13.365-33.247 29.922-33.247 16.49 0 29.922 14.895 29.922 33.247v299.354c0 18.352-13.365 33.247-29.922 33.247-16.49 0-29.922-14.895-29.922-33.247zM669.058 318.737c14.296-11.503 17.554-31.252 7.181-44.152s-30.321-13.964-44.684-2.46l-105.592 84.846 40.495 44.152zM179.532 22.442v166.234c0 41.558-73.143 172.883-73.143 172.883-36.571 81.455-33.247 146.286-33.247 146.286-13.299 172.883 119.688 292.571 119.688 292.571 115.034 120.22 285.922 106.39 285.922 106.39 171.221 4.987 272.623-99.74 272.623-99.74 66.494-48.208 99.74-172.883 99.74-172.883l99.74-192.831c28.26-44.883 6.649-79.792 6.649-79.792-18.818-31.784-86.442-39.896-86.442-39.896v-66.494c-3.325-44.351-53.195-106.39-53.195-106.39-54.325-58.913-132.987-53.195-132.987-53.195v-66.494c1.662-46.545-39.896-39.896-39.896-39.896h-432.208c-36.172 2.926-33.247 33.247-33.247 33.247zM472.104 846.961c0 0-146.286 9.974-246.026-99.74 0 0-94.753-94.753-93.091-239.377 0 0 1.662-74.805 59.844-172.883 0 0 53.195-111.377 53.195-152.935v-139.636h372.364v113.039h79.792c0 0 92.559 25.135 106.39 99.74v119.688l79.792 19.948c0 0 9.974 8.312 0 26.597l-93.091 179.532c0 0-21.61 107.188-99.74 172.883 0 0-99.541 78.728-219.429 73.143z" />
<glyph unicode="&#xe918;" glyph-name="shipper-o" d="M53.195 408.104c0-11.038 8.91-19.948 19.948-19.948h179.532c11.038 0 19.948 8.91 19.948 19.948s-8.91 19.948-19.948 19.948h-179.532c-11.038 0-19.948-8.91-19.948-19.948zM106.39 494.545c0-11.038 8.91-19.948 19.948-19.948h179.532c11.038 0 19.948 8.91 19.948 19.948s-8.91 19.948-19.948 19.948h-179.532c-11.038 0-19.948-8.91-19.948-19.948zM159.584 580.987c0-11.038 8.91-19.948 19.948-19.948h179.532c11.038 0 19.948 8.91 19.948 19.948s-8.91 19.948-19.948 19.948h-179.532c-11.038 0-19.948-8.91-19.948-19.948zM239.377 248.519c0-11.038-8.91-19.948-19.948-19.948s-19.948 8.91-19.948 19.948v152.935h39.896zM219.429 268.468h73.143v-39.896h-73.143c-11.038 0-19.948 8.91-19.948 19.948s8.91 19.948 19.948 19.948zM731.429 268.468v-39.896h-272.623v39.896zM957.506 268.468c11.038 0 19.948-8.91 19.948-19.948s-8.91-19.948-19.948-19.948h-66.494v39.896zM671.584 248.519c0-11.038-8.91-19.948-19.948-19.948s-19.948 8.91-19.948 19.948v352.416h39.896zM711.481 579.258v-289.114c0-11.969 8.91-21.677 19.948-21.677s19.948 9.708 19.948 21.677v289.114c0 11.969-8.91 21.677-19.948 21.677s-19.948-9.708-19.948-21.677zM299.221 733.922h272.623c55.057 0 99.74-44.684 99.74-99.74v-106.39c0-32.648-15.692-61.573-39.896-79.792v192.831c0 18.352-34.843 53.195-53.195 53.195h-285.922c-18.352 0-53.195-31.983-53.195-59.844v-52.663l-39.896 3.258v49.405c0 55.057 44.684 99.74 99.74 99.74zM977.455 381.506v-139.636h-39.896v132.987c-1.263 26.398-28.193 59.844-46.545 59.844v45.681c48.806-6.516 86.442-48.274 86.442-98.876zM804.571 607.584c55.057 0 99.74-44.684 99.74-99.74v-73.143h-16.357c-4.256 0.199-12.035 1.33-16.889 6.649-6.317 6.915-6.649 22.475-6.649 22.475v44.019c0 18.352-28.193 53.195-46.545 53.195h-106.39v38.566l6.649 7.979zM375.622 361.625c60.576 0 109.714-49.139 109.714-109.714s-49.139-109.714-109.714-109.714c-60.576 0-109.714 49.139-109.714 109.714s49.139 109.714 109.714 109.714zM304.341 250.315c0-39.364 31.917-71.281 71.281-71.281s71.281 31.917 71.281 71.281c0 39.364-31.917 71.281-71.281 71.281s-71.281-31.917-71.281-71.281zM814.479 361.625c60.576 0 109.714-49.139 109.714-109.714s-49.139-109.714-109.714-109.714c-60.576 0-109.714 49.139-109.714 109.714s49.139 109.714 109.714 109.714zM743.198 250.315c0-39.364 31.917-71.281 71.348-71.281 39.364 0 71.281 31.917 71.281 71.281s-31.917 71.281-71.281 71.281c-39.364 0-71.348-31.917-71.348-71.281z" />
<glyph unicode="&#xe919;" glyph-name="stairs-o" d="M73.143 19.117c0-16.557 8.91-29.922 19.948-29.922h804.571c11.038 0 19.948 13.365 19.948 29.922s-8.91 29.922-19.948 29.922h-804.571c-11.038 0-19.948-13.365-19.948-29.922zM735.751 899.158l-676.438-521.309c-9.243-7.115-8.578-23.539 1.463-36.638 10.107-13.099 25.799-17.887 35.042-10.772l676.438 521.309c9.243 7.115 8.578 23.539-1.463 36.638-10.107 13.099-25.799 17.887-35.042 10.772zM894.338 600.935c-16.557 0-29.922-6.383-29.922-14.296v-576.499c0-7.913 13.365-14.296 29.922-14.296s29.922 6.383 29.922 14.296v576.499c0 7.913-13.365 14.296-29.922 14.296zM103.065 142.13c-16.557 0-29.922-1.596-29.922-3.591v-145.687c0-1.995 13.365-3.591 29.922-3.591s29.922 1.596 29.922 3.591v145.687c0 1.995-13.365 3.591-29.922 3.591zM136.312 394.805c-16.557 0-29.922-2.926-29.922-6.583v-266.107c0-3.657 13.365-6.583 29.922-6.583s29.922 2.926 29.922 6.583v266.107c0 3.657-13.365 6.583-29.922 6.583zM295.896 527.792c-16.557 0-29.922-2.926-29.922-6.583v-266.107c0-3.657 13.365-6.583 29.922-6.583s29.922 2.926 29.922 6.583v266.107c0 3.657-13.365 6.583-29.922 6.583zM455.481 647.481c-16.557 0-29.922-2.926-29.922-6.583v-266.107c0-3.657 13.365-6.583 29.922-6.583s29.922 2.926 29.922 6.583v266.107c0 3.657-13.365 6.583-29.922 6.583zM615.065 760.519c-16.557 0-29.922-2.926-29.922-6.583v-266.107c0-3.657 13.365-6.583 29.922-6.583s29.922 2.926 29.922 6.583v266.107c0 3.657-13.365 6.583-29.922 6.583zM774.649 860.26c-16.557 0-29.922-2.926-29.922-6.583v-266.107c0-3.657 13.365-6.583 29.922-6.583s29.922 2.926 29.922 6.583v266.107c0 3.657-13.365 6.583-29.922 6.583zM249.351 255.169c-16.557 0-29.922-1.596-29.922-3.591v-145.687c0-1.995 13.365-3.591 29.922-3.591s29.922 1.596 29.922 3.591v145.687c0 1.995-13.365 3.591-29.922 3.591zM408.935 368.208c-16.557 0-29.922-1.596-29.922-3.591v-145.687c0-1.995 13.365-3.591 29.922-3.591s29.922 1.596 29.922 3.591v145.687c0 1.995-13.365 3.591-29.922 3.591zM575.169 487.896c-16.557 0-29.922-1.596-29.922-3.591v-145.687c0-1.995 13.365-3.591 29.922-3.591s29.922 1.596 29.922 3.591v145.687c0 1.995-13.365 3.591-29.922 3.591zM721.455 600.935c-16.557 0-29.922-1.596-29.922-3.591v-145.687c0-1.995 13.365-3.591 29.922-3.591s29.922 1.596 29.922 3.591v145.687c0 1.995-13.365 3.591-29.922 3.591zM897.662 571.013c0 16.557-2.194 29.922-4.854 29.922h-196.422c-2.66 0-4.854-13.365-4.854-29.922s2.194-29.922 4.854-29.922h196.422c2.66 0 4.854 13.365 4.854 29.922zM977.455 873.558c0 16.557-17.288 33.247-19.948 33.247h-207.925c-2.66 0-4.854-13.365-4.854-29.922s2.194-29.922 4.854-29.922h207.925c2.66 0 19.948 10.041 19.948 26.597zM751.377 457.974c0 16.557-2.194 29.922-4.854 29.922h-196.422c-2.66 0-4.854-13.365-4.854-29.922s2.194-29.922 4.854-29.922h196.422c2.66 0 4.854 13.365 4.854 29.922zM605.091 344.935c0 16.557-2.394 29.922-5.319 29.922h-215.372c-2.926 0-5.319-13.365-5.319-29.922s2.394-29.922 5.319-29.922h215.372c2.926 0 5.319 13.365 5.319 29.922zM438.857 231.896c0 16.557-2.194 29.922-4.854 29.922h-196.422c-2.66 0-4.854-13.365-4.854-29.922s2.194-29.922 4.854-29.922h196.422c2.66 0 4.854 13.365 4.854 29.922zM279.273 112.208c0 16.557-2.194 29.922-4.854 29.922h-196.422c-2.66 0-4.854-13.365-4.854-29.922s2.194-29.922 4.854-29.922h196.422c2.66 0 4.854 13.365 4.854 29.922z" />
<glyph unicode="&#xe91a;" glyph-name="table" d="M206.13 846.961c0 0-16.158-2.859-26.597-13.299-9.509-9.509-13.299-26.597-13.299-26.597l-99.74-711.481c0 0 45.548-38.965 113.039-46.545 118.691-13.365 192.831 26.597 192.831 26.597s74.34-33.247 146.286-33.247c74.34 0 146.286 33.247 146.286 33.247s52.53-46.213 192.831-26.597c76.069 10.639 119.688 53.195 119.688 53.195l-106.39 704.831c0 0-3.125 16.424-13.299 26.597-9.708 9.708-26.597 13.299-26.597 13.299z" />
<glyph unicode="&#xe91b;" glyph-name="table-o" d="M831.169 846.961c0 0 16.889-3.591 26.597-13.299 10.174-10.174 13.299-26.597 13.299-26.597l106.39-704.831c0 0-43.62-42.556-119.688-53.195-140.301-19.616-192.831 26.597-192.831 26.597s-71.946-33.247-146.286-33.247c-71.946 0-146.286 33.247-146.286 33.247s-74.14-39.963-192.831-26.597c-67.491 7.58-113.039 46.545-113.039 46.545l99.74 711.481c0 0 3.79 17.089 13.299 26.597 10.439 10.439 26.597 13.299 26.597 13.299zM232.727 780.468l-99.74-651.636c0 0 43.221-21.211 99.74-19.948 80.258 1.795 146.286 39.896 146.286 39.896s44.152-39.497 139.636-39.896c84.646-0.399 139.636 39.896 139.636 39.896s55.522-41.558 146.286-39.896c57.583 1.064 99.74 19.948 99.74 19.948l-99.74 651.636z" />
<glyph unicode="&#xe91c;" glyph-name="taxi-o" d="M132.987 182.026c0-11.038 7.447-19.948 16.623-19.948h731.429c9.176 0 16.623 8.91 16.623 19.948s-7.447 19.948-16.623 19.948h-731.429c-9.176 0-16.623-8.91-16.623-19.948zM263.115 408.104l-1.928 39.896h523.37v-39.896zM325.818 175.377l-6.649-39.896c-4.123-39.83-46.545-53.195-46.545-53.195h-86.442c-22.142 2.527-33.247 19.948-33.247 19.948-15.759 12.168-19.948 73.143-19.948 73.143h53.195c0 0-10.905-13.365-6.649-33.247 0 0 7.381-18.618 19.948-19.948h59.844c0 0 18.352 3.059 19.948 19.948 0 0 7.78 20.281-6.649 33.247zM172.883 182.026v146.286c0.066 24.536 6.649 46.545 6.649 46.545l93.091 252.675c15.493 34.71 93.091 53.195 93.091 53.195 43.487 13.498 152.935 13.299 152.935 13.299v33.247c-84.447-1.928-159.584-6.649-159.584-6.649-45.282-6.982-73.143-26.597-73.143-26.597-48.274-22.741-53.195-66.494-53.195-66.494l-79.792-206.13c-14.363-33.579-19.948-79.792-19.948-79.792v-172.883zM186.182 441.351c0 0 32.449-36.305 93.091-33.247v39.896c0 0-35.441-5.519-66.494 33.247zM192.831 521.143h-73.143c0 0-40.295 2.061-59.844-39.896 0 0-24.27-44.351 13.299-66.494 0 0 10.639-8.578 33.247-6.649h53.195l19.948 39.896h-66.494c0 0-19.483 2.859-6.649 19.948 0 0 9.043 12.235 19.948 13.299h66.494l13.299 33.247zM896.798 175.377c0 0-4.189-60.975-19.882-73.143 0 0-11.104-17.421-33.18-19.948h-86.242c0 0-42.29 13.365-46.412 53.195l-6.649 39.896h53.062c-14.363-12.966-6.649-33.247-6.649-33.247 1.596-16.889 19.882-19.948 19.882-19.948h59.711c12.501 1.33 19.882 19.948 19.882 19.948 4.256 19.882-6.649 33.247-6.649 33.247zM896.798 168.727v172.883c0 0-5.585 46.213-19.882 79.792l-79.593 206.13c0 0-4.921 43.753-53.062 66.494 0 0-27.794 19.616-73.010 26.597 0 0-75.005 4.721-159.252 6.649v-33.247c0 0 109.182 0.199 152.603-13.299 0 0 77.465-18.485 92.891-53.195l92.891-252.675c0 0 6.516-22.009 6.649-46.545v-146.286zM817.205 481.247c-30.986-38.766-66.361-33.247-66.361-33.247v-39.896c60.509-3.059 92.891 33.247 92.891 33.247zM823.855 514.494l13.299-33.247h66.361c10.905-1.064 19.882-13.299 19.882-13.299 12.767-17.089-6.649-19.948-6.649-19.948h-66.361l19.882-39.896h53.062c22.608-1.928 33.18 6.649 33.18 6.649 37.502 22.142 13.299 66.494 13.299 66.494-19.549 41.957-59.711 39.896-59.711 39.896h-73.010zM438.857 707.325v39.896c1.995 18.618 26.597 26.597 26.597 26.597h99.74c18.020-0.199 26.597-26.597 26.597-26.597v-39.896h39.896v53.195c-6.317 30.853-53.195 53.195-53.195 53.195h-132.987c-41.492-14.163-46.545-53.195-46.545-53.195v-53.195zM265.974 388.156c54.99 0.332 79.792-6.649 79.792-6.649 37.502-3.059 53.195-46.545 53.195-46.545v-39.896c-5.652-58.913-73.143-59.844-73.143-59.844-45.415-1.396-86.442 26.597-86.442 26.597-55.522 29.922-46.545 73.143-46.545 73.143-1.862 25.799 19.948 46.545 19.948 46.545 9.575 2.261-3.99 6.317 53.195 6.649zM246.026 348.26c0 0-17.222-6.45-13.299-19.948 0 0 15.426-29.058 73.143-46.545 0 0 32.515-10.306 46.545 13.299 0 0 14.629 11.304-6.649 39.896 0 0-19.217 12.035-39.896 13.299zM817.338 381.506c0 0 21.743-20.746 19.882-46.545 0 0 8.91-43.221-46.412-73.143 0 0-40.894-27.994-86.176-26.597 0 0-67.291 0.931-72.943 59.844v39.896c0 0 15.626 43.487 53.062 46.545 0 0 24.669 6.982 79.526 6.649 57.051-0.332 43.487-4.389 53.062-6.649zM724.513 348.26c-20.613-1.263-39.763-13.299-39.763-13.299-21.211-28.592-6.649-39.896-6.649-39.896 14.030-23.605 46.412-13.299 46.412-13.299 57.583 17.488 72.943 46.545 72.943 46.545 3.923 13.498-13.232 19.948-13.232 19.948zM332.468 600.935v-93.091c0-11.038 8.91-19.948 19.948-19.948s19.948 8.91 19.948 19.948v93.091c0 11.038-8.91 19.948-19.948 19.948s-19.948-8.91-19.948-19.948zM678.234 606.587v-97.745c0-11.57 8.91-20.945 19.948-20.945s19.948 9.376 19.948 20.945v97.745c0 11.57-8.91 20.945-19.948 20.945s-19.948-9.376-19.948-20.945zM443.578 612.97l-45.282-92.758c-5.386-10.971-1.662-23.805 8.245-28.659s22.275 0.133 27.661 11.104l45.282 92.758c5.386 10.971 1.662 23.805-8.245 28.659s-22.275-0.133-27.661-11.104zM462.861 625.471c-9.974-4.921-13.631-18.086-8.245-29.324l45.548-95.019c5.386-11.237 17.82-16.357 27.794-11.37 9.974 4.921 13.631 18.086 8.245 29.324l-45.548 95.019c-5.386 11.237-17.82 16.357-27.794 11.37zM394.306 627.532h-83.782c-9.908 0-17.953-8.91-17.953-19.948s8.046-19.948 17.953-19.948h83.782c9.908 0 17.953 8.91 17.953 19.948s-8.046 19.948-17.953 19.948zM425.558 527.792c0-11.038 8.91-19.948 19.948-19.948h46.545c11.038 0 19.948 8.91 19.948 19.948s-8.91 19.948-19.948 19.948h-46.545c-11.038 0-19.948-8.91-19.948-19.948zM610.011 615.098l-61.706-93.157c-7.314-11.038-5.785-24.869 3.391-30.986 9.176-6.051 22.541-2.061 29.856 8.91l61.706 93.157c7.314 11.038 5.785 24.869-3.391 30.986-9.176 6.051-22.541 2.061-29.856-8.91zM553.425 624.673c-9.376-6.117-10.971-20.081-3.458-31.185l63.036-93.822c7.447-11.104 21.145-15.161 30.521-8.977 9.376 6.117 10.971 20.081 3.458 31.185l-63.036 93.822c-7.447 11.104-21.145 15.161-30.521 8.977z" />
<glyph unicode="&#xe91d;" glyph-name="time-o" d="M512.066 906.872c253.34 0 458.739-205.465 458.739-458.872s-205.398-458.872-458.739-458.872c-253.34 0-458.739 205.465-458.739 458.872 0 77.731 19.283 150.874 53.394 215.040 10.107 9.243 24.669 17.887 39.63 11.038 0 0 14.695-6.982 10.041-29.324-32.648-58.514-51.2-125.872-51.2-197.619 0 73.941-13.764-75.138 47.011-189.905 68.156-128.731 203.47-216.436 359.264-216.436 224.416 0 406.275 181.926 406.275 406.408 0 224.416-181.926 406.408-406.275 406.408-118.89 0-225.878-51.067-300.218-132.522-7.846-1.928-16.557-0.931-25.068 6.317 0 0-14.961 12.168-5.452 38.101 83.516 87.173 201.076 141.432 331.337 141.432zM482.277 709.12v-261.785c0-16.091 13.033-29.058 29.191-29.058 16.091 0 29.191 13.033 29.191 29.058v261.785c0 16.091-13.033 29.058-29.191 29.058-16.091 0-29.191-13.033-29.191-29.058zM493.648 459.503c-9.974-12.567-5.652-32.582 9.575-44.684l145.222-114.901c15.294-12.102 35.707-11.703 45.681 0.931 9.974 12.567 5.652 32.582-9.575 44.684l-145.222 114.901c-15.294 12.102-35.707 11.703-45.681-0.931z" />
<glyph unicode="&#xe91e;" glyph-name="triangle" d="M53.195 148.779h924.26l-462.13 591.792z" />
<glyph unicode="&#xe91f;" glyph-name="list-o" d="M265.974 172.052c0-12.833 9.708-23.273 21.677-23.273h668.193c11.969 0 21.677 10.439 21.677 23.273s-9.708 23.273-21.677 23.273h-668.193c-11.969 0-21.677-10.439-21.677-23.273zM53.195 172.052c0-38.566 31.252-69.818 69.818-69.818s69.818 31.252 69.818 69.818c0 38.566-31.252 69.818-69.818 69.818s-69.818-31.252-69.818-69.818zM265.974 451.325c0-12.833 9.708-23.273 21.677-23.273h668.193c11.969 0 21.677 10.439 21.677 23.273s-9.708 23.273-21.677 23.273h-668.193c-11.969 0-21.677-10.439-21.677-23.273zM53.195 451.325c0-38.566 31.252-69.818 69.818-69.818s69.818 31.252 69.818 69.818c0 38.566-31.252 69.818-69.818 69.818s-69.818-31.252-69.818-69.818zM265.974 737.247c0-12.833 9.708-23.273 21.677-23.273h668.193c11.969 0 21.677 10.439 21.677 23.273s-9.708 23.273-21.677 23.273h-668.193c-11.969 0-21.677-10.439-21.677-23.273zM53.195 737.247c0-38.566 31.252-69.818 69.818-69.818s69.818 31.252 69.818 69.818c0 38.566-31.252 69.818-69.818 69.818s-69.818-31.252-69.818-69.818z" />
<glyph unicode="&#xe920;" glyph-name="map-o" d="M53.195 823.688v-591.792c0-12.833 10.439-23.273 23.273-23.273s23.273 10.439 23.273 23.273v591.792c0 12.833-10.439 23.273-23.273 23.273s-23.273-10.439-23.273-23.273zM664.935 823.688v-591.792c0-12.833 10.439-23.273 23.273-23.273s23.273 10.439 23.273 23.273v591.792c0 12.833-10.439 23.273-23.273 23.273s-23.273-10.439-23.273-23.273zM319.169 657.455v-591.792c0-12.833 10.439-23.273 23.273-23.273s23.273 10.439 23.273 23.273v591.792c0 12.833-10.439 23.273-23.273 23.273s-23.273-10.439-23.273-23.273zM930.909 657.455v-591.792c0-12.833 10.439-23.273 23.273-23.273s23.273 10.439 23.273 23.273v591.792c0 12.833-10.439 23.273-23.273 23.273s-23.273-10.439-23.273-23.273zM69.619 206.762l255.535-155.728c10.971-6.716 25.268-3.192 31.983 7.78s3.192 25.268-7.78 31.983l-255.535 155.728c-10.971 6.716-25.268 3.192-31.983-7.78s-3.192-25.268 7.78-31.983zM682.689 205.964l253.074-153.467c10.838-6.583 25.068-3.192 31.651 7.647 6.649 10.838 3.192 24.935-7.713 31.518l-253.074 153.467c-10.838 6.583-25.068 3.192-31.651-7.647-6.649-10.838-3.192-24.935 7.713-31.518zM71.015 797.756l255.136-153.467c10.971-6.583 25.268-3.192 31.917 7.647s3.192 24.935-7.78 31.518l-255.136 153.467c-10.971 6.583-25.268 3.192-31.917-7.647s-3.192-24.935 7.78-31.518zM683.287 796.891l252.675-151.273c10.838-6.516 25.002-3.125 31.651 7.514 6.583 10.639 3.192 24.603-7.647 31.052l-252.675 151.273c-10.838 6.516-25.002 3.125-31.651-7.514-6.583-10.639-3.192-24.603 7.647-31.052zM665.135 845.897l-308.796-169.824c-11.237-6.184-30.055-37.236-23.871-48.54 6.184-11.237 35.042 1.529 46.346 7.713l308.796 169.824c11.237 6.184 15.36 20.347 9.176 31.584s-20.347 15.36-31.584 9.176zM664.004 265.475l-306.269-172.085c-11.171-6.25-24.736-32.914-18.618-44.351s22.076-6.25 33.247 0l313.849 175.077c11.171 6.25 15.227 20.613 9.11 32.050s-20.148 15.559-31.318 9.309z" />
<glyph unicode="&#xe921;" glyph-name="order-number-o" d="M132.987 571.013c0-12.833 10.439-23.273 23.273-23.273h731.429c12.833 0 23.273 10.439 23.273 23.273s-10.439 23.273-23.273 23.273h-731.429c-12.833 0-23.273-10.439-23.273-23.273zM86.442 305.039c0-12.833 10.439-23.273 23.273-23.273h731.429c12.833 0 23.273 10.439 23.273 23.273s-10.439 23.273-23.273 23.273h-731.429c-12.833 0-23.273-10.439-23.273-23.273zM422.965 854.142c-12.567 2.66-25.135-6.317-28.060-20.081l-165.436-783.028c-2.926-13.764 4.921-27.063 17.488-29.723s25.135 6.317 28.060 20.081l165.436 783.028c2.926 13.764-4.921 27.063-17.488 29.723zM742.134 854.142c-12.567 2.66-25.135-6.317-28.060-20.081l-165.436-783.028c-2.926-13.764 4.921-27.063 17.488-29.723s25.135 6.317 28.060 20.081l165.436 783.028c2.926 13.764-4.921 27.063-17.488 29.723z" />
</font>
</defs>
</svg>
